<?xml version="1.0" encoding="UTF-8" standalone="no"?>
<!-- Generator: Adobe Illustrator 16.0.4, SVG Export Plug-In . SVG Version: 6.00 Build 0)  -->

<svg
   xmlns:dc="http://purl.org/dc/elements/1.1/"
   xmlns:cc="http://creativecommons.org/ns#"
   xmlns:rdf="http://www.w3.org/1999/02/22-rdf-syntax-ns#"
   xmlns:svg="http://www.w3.org/2000/svg"
   xmlns="http://www.w3.org/2000/svg"
   xmlns:sodipodi="http://sodipodi.sourceforge.net/DTD/sodipodi-0.dtd"
   xmlns:inkscape="http://www.inkscape.org/namespaces/inkscape"
   version="1.1"
   id="Layer_1"
   x="0px"
   y="0px"
   width="880"
   height="410"
   viewBox="0 0 880 409.99999"
   enable-background="new 0 0 306 344.35"
   xml:space="preserve"
   sodipodi:docname="cinnamon.svg"
   inkscape:version="0.92.2 (5c3e80d, 2017-08-06)"
   inkscape:export-filename="/home/mirko/development/c-sick/logo/cinnamon.png"
   inkscape:export-xdpi="60"
   inkscape:export-ydpi="60"><metadata
     id="metadata25"><rdf:RDF><cc:Work
         rdf:about=""><dc:format>image/svg+xml</dc:format><dc:type
           rdf:resource="http://purl.org/dc/dcmitype/StillImage" /><dc:title /></cc:Work></rdf:RDF></metadata><defs
     id="defs23" /><sodipodi:namedview
     pagecolor="#ffffff"
     bordercolor="#666666"
     borderopacity="1"
     objecttolerance="10"
     gridtolerance="10"
     guidetolerance="10"
     inkscape:pageopacity="0"
     inkscape:pageshadow="2"
     inkscape:window-width="1920"
     inkscape:window-height="1023"
     id="namedview21"
     showgrid="false"
     inkscape:snap-global="false"
     inkscape:snap-bbox="true"
     inkscape:bbox-paths="true"
     inkscape:bbox-nodes="true"
     inkscape:snap-bbox-edge-midpoints="true"
     inkscape:snap-bbox-midpoints="true"
     inkscape:object-paths="true"
     inkscape:snap-intersection-paths="true"
     inkscape:snap-smooth-nodes="true"
     fit-margin-top="0"
     fit-margin-left="0"
     fit-margin-right="0"
     fit-margin-bottom="0"
     inkscape:zoom="1"
     inkscape:cx="310.79597"
     inkscape:cy="206.23777"
     inkscape:window-x="0"
     inkscape:window-y="0"
     inkscape:window-maximized="1"
     inkscape:current-layer="Layer_1" /><path
     style="opacity:1;fill:#006976;fill-opacity:1;stroke:#006976;stroke-width:3;stroke-linecap:round;stroke-linejoin:round;stroke-miterlimit:4;stroke-dasharray:none;stroke-dashoffset:0;stroke-opacity:1"
     d="M 205.33552,4.9999978 A 150,200 0 0 0 194.46052,5.5449178 A 200,200 0 0 1 205.33552,4.9999978 Z M 194.46052,5.5449178 A 200,200 0 0 0 5.3355226,205 A 200,200 0 0 0 205.33552,405 A 150,200 0 0 1 55.335523,205 A 150,200 0 0 1 194.46052,5.5449178 Z"
     id="circle884"
     inkscape:connector-curvature="0" /><text
     id="text894"
     y="254.99911"
     x="309.15878"
     style="font-style:normal;font-variant:normal;font-weight:normal;font-stretch:normal;font-size:137.17347717px;line-height:125%;font-family:'DejaVu Sans Mono';-inkscape-font-specification:'DejaVu Sans Mono';letter-spacing:0px;word-spacing:0px;fill:#000000;fill-opacity:1;stroke:#000000;stroke-width:3;stroke-linecap:round;stroke-linejoin:miter;stroke-miterlimit:4;stroke-dasharray:none;stroke-opacity:1"
     xml:space="preserve"><tspan
       style="fill:#000000;fill-opacity:1;stroke:#000000;stroke-width:3;stroke-linecap:round;stroke-miterlimit:4;stroke-dasharray:none;stroke-opacity:1"
       y="254.99911"
       x="309.15878"
       id="tspan892"
       sodipodi:role="line">innamon</tspan></text>
<g
     id="g900"
     transform="matrix(0.98039216,0,0,0.98039216,62.035523,36.200088)"
     style="fill:#006976;fill-opacity:1;stroke:#000000;stroke-width:5.0999999;stroke-linecap:round;stroke-miterlimit:4;stroke-dasharray:none;stroke-opacity:1"><path
       d="M 153,274.175 C 96.757,274.175 51,228.418 51,172.175 C 51,115.932 96.757,70.175 153,70.175 C 189.292,70.175 223.139,89.705 241.331,121.143 L 197.188,146.687 C 188.083,130.951 171.15,121.175 153,121.175 C 124.878,121.175 102,144.053 102,172.175 C 102,200.296 124.878,223.175 153,223.175 C 171.152,223.175 188.085,213.399 197.191,197.66 L 241.334,223.203 C 223.142,254.644 189.294,274.175 153,274.175 Z"
       id="path898"
       inkscape:connector-curvature="0"
       style="fill:#006976;fill-opacity:1;stroke:#000000;stroke-width:5.0999999;stroke-linecap:round;stroke-miterlimit:4;stroke-dasharray:none;stroke-opacity:1" /></g></svg>